<?xml version="1.0" encoding="UTF-8" standalone="no"?>
<svg
   xmlns:dc="http://purl.org/dc/elements/1.1/"
   xmlns:cc="http://creativecommons.org/ns#"
   xmlns:rdf="http://www.w3.org/1999/02/22-rdf-syntax-ns#"
   xmlns:svg="http://www.w3.org/2000/svg"
   xmlns="http://www.w3.org/2000/svg"
   viewBox="0 0 250 250"
   height="250"
   width="250"
   xml:space="preserve"
   version="1.1"
   id="svg4136"><metadata
     id="metadata4142"><rdf:RDF><cc:Work
         rdf:about=""><dc:format>image/svg+xml</dc:format><dc:type
           rdf:resource="http://purl.org/dc/dcmitype/StillImage" /><dc:title></dc:title></cc:Work></rdf:RDF></metadata><defs
     id="defs4140" /><g
     transform="matrix(1.25,0,0,-1.25,0,250)"
     id="g4144"><g
       transform="translate(190.3623,100.52)"
       id="g4146"><path
         id="path4148"
         style="fill:#00aeef;fill-opacity:1;fill-rule:nonzero;stroke:none"
         d="m 0,0 -47.916,-10.29 -6.654,10.29 6.654,10.29 47.916,-10.29 z" /></g><g
       transform="translate(100.3594,65.0879)"
       id="g4150"><path
         id="path4152"
         style="fill:#00aeef;fill-opacity:1;fill-rule:nonzero;stroke:none"
         d="m 0,0 10.29,-6.654 -10.29,-47.91 -10.29,47.91 10.29,6.654 z" /></g><g
       transform="translate(100.3594,190.5166)"
       id="g4154"><path
         id="path4156"
         style="fill:#00aeef;fill-opacity:1;fill-rule:nonzero;stroke:none"
         d="m 0,0 10.29,-47.909 -10.29,-6.655 -10.29,6.655 10.29,47.909 z" /></g><g
       transform="translate(58.272,110.8101)"
       id="g4158"><path
         id="path4160"
         style="fill:#00aeef;fill-opacity:1;fill-rule:nonzero;stroke:none"
         d="m 0,0 6.655,-10.29 -6.655,-10.29 -47.909,10.29 47.909,10.29 z" /></g><g
       transform="translate(164.001,164.1538)"
       id="g4162"><path
         id="path4164"
         style="fill:#00aeef;fill-opacity:1;fill-rule:nonzero;stroke:none"
         d="m 0,0 -41.139,-63.63 41.139,-63.638 -63.638,41.14 -63.637,-41.14 41.138,63.638 -41.138,63.63 63.637,-41.13 63.638,41.13 z" /></g></g></svg>